<svg width="200" height="150" viewBox="0 0 200 150" fill="none" xmlns="http://www.w3.org/2000/svg">
  <!-- Background -->
  <rect width="200" height="150" fill="#1a1a1a"/>
  
  <!-- Simple instructor figure -->
  <!-- Head -->
  <circle cx="100" cy="50" r="15" fill="#FFD4B3"/>
  
  <!-- Body -->
  <rect x="90" y="65" width="20" height="30" rx="3" fill="#8B0000"/>
  
  <!-- Arms -->
  <rect x="80" y="70" width="8" height="20" rx="4" fill="#FFD4B3"/>
  <rect x="112" y="70" width="8" height="20" rx="4" fill="#FFD4B3"/>
  
  <!-- Legs -->
  <rect x="92" y="95" width="8" height="25" rx="4" fill="#333"/>
  <rect x="100" y="95" width="8" height="25" rx="4" fill="#333"/>
  
  <!-- Cap -->
  <ellipse cx="100" cy="40" rx="18" ry="12" fill="#8B0000"/>
  
  <!-- Clipboard -->
  <rect x="70" y="60" width="15" height="20" rx="2" fill="#fff"/>
  <rect x="72" y="62" width="11" height="16" fill="#000"/>
  <line x1="72" y1="65" x2="83" y2="65" stroke="#fff" stroke-width="0.5"/>
  <line x1="72" y1="68" x2="80" y2="68" stroke="#fff" stroke-width="0.5"/>
  <line x1="72" y1="71" x2="78" y2="71" stroke="#fff" stroke-width="0.5"/>
  
  <!-- Teaching symbols -->
  <circle cx="130" cy="60" r="8" fill="#00FF00"/>
  <text x="130" y="65" text-anchor="middle" fill="#fff" font-family="Arial" font-size="10" font-weight="bold">✓</text>
  
  <circle cx="130" cy="80" r="8" fill="#FFD700"/>
  <text x="130" y="85" text-anchor="middle" fill="#000" font-family="Arial" font-size="12" font-weight="bold">?</text>
</svg>
